<svg width="16" height="17" viewBox="0 0 16 17" fill="none" xmlns="http://www.w3.org/2000/svg">
<path d="M14.288 10.0047L15.5669 3.09848C15.6592 2.59984 15.3504 2.125 14.9338 2.125H4.30728L4.0593 0.637168C3.9975 0.266322 3.73161 0 3.42317 0H0.649306C0.290699 0 0 0.356768 0 0.796875V1.32812C0 1.76823 0.290699 2.125 0.649306 2.125H2.53995L4.44046 13.5281C3.98579 13.849 3.6794 14.4507 3.6794 15.1406C3.6794 16.1675 4.35771 17 5.19444 17C6.03118 17 6.70949 16.1675 6.70949 15.1406C6.70949 14.6202 6.53507 14.15 6.25433 13.8125H11.9262C11.6455 14.15 11.4711 14.6202 11.4711 15.1406C11.4711 16.1675 12.1494 17 12.9861 17C13.8228 17 14.5012 16.1675 14.5012 15.1406C14.5012 14.4044 14.1525 13.7683 13.6468 13.467L13.7961 12.661C13.8884 12.1623 13.5796 11.6875 13.1629 11.6875H5.90102L5.72395 10.625H13.6548C13.958 10.625 14.2208 10.3675 14.288 10.0047Z" fill="black"/>
</svg>
