<svg width="64" height="40" viewBox="0 0 64 40" fill="none" xmlns="http://www.w3.org/2000/svg">
<rect x="0.5" y="10.5" width="62.8" height="21" rx="10.5" fill="#FFA502" stroke="black"/>
<rect x="21.4" y="10.5" width="21" height="21" fill="white" stroke="black"/>
<path d="M57.6735 19.7143H53.6327V15.8571C53.6327 15.3838 53.2305 15 52.7347 15H51.8367C51.3409 15 50.9388 15.3838 50.9388 15.8571V19.7143H46.898C46.4021 19.7143 46 20.0981 46 20.5714V21.4286C46 21.9019 46.4021 22.2857 46.898 22.2857H50.9388V26.1429C50.9388 26.6162 51.3409 27 51.8367 27H52.7347C53.2305 27 53.6327 26.6162 53.6327 26.1429V22.2857H57.6735C58.1693 22.2857 58.5714 21.9019 58.5714 21.4286V20.5714C58.5714 20.0981 58.1693 19.7143 57.6735 19.7143Z" fill="black"/>
<path d="M17 20H5C4.44781 20 4 20.4275 4 20.9545V21.9091C4 22.4362 4.44781 22.8636 5 22.8636H17C17.5522 22.8636 18 22.4362 18 21.9091V20.9545C18 20.4275 17.5522 20 17 20Z" fill="black"/>
<path d="M37.0153 20.726C37.0153 21.782 36.8173 22.724 36.4213 23.552C36.0253 24.368 35.4853 25.01 34.8013 25.478C34.1293 25.946 33.3613 26.18 32.4973 26.18C31.6333 26.18 30.8593 25.946 30.1753 25.478C29.4913 25.01 28.9513 24.368 28.5553 23.552C28.1713 22.724 27.9793 21.782 27.9793 20.726C27.9793 19.67 28.1713 18.734 28.5553 17.918C28.9513 17.09 29.4913 16.442 30.1753 15.974C30.8593 15.494 31.6333 15.254 32.4973 15.254C33.3613 15.254 34.1293 15.494 34.8013 15.974C35.4853 16.442 36.0253 17.09 36.4213 17.918C36.8173 18.734 37.0153 19.67 37.0153 20.726ZM35.7733 20.726C35.7733 19.874 35.6353 19.124 35.3593 18.476C35.0833 17.816 34.6993 17.306 34.2073 16.946C33.7153 16.586 33.1453 16.406 32.4973 16.406C31.8493 16.406 31.2793 16.586 30.7873 16.946C30.2953 17.306 29.9053 17.816 29.6173 18.476C29.3413 19.124 29.2033 19.874 29.2033 20.726C29.2033 21.578 29.3413 22.328 29.6173 22.976C29.9053 23.624 30.2953 24.128 30.7873 24.488C31.2793 24.848 31.8493 25.028 32.4973 25.028C33.1453 25.028 33.7153 24.848 34.2073 24.488C34.6993 24.128 35.0833 23.624 35.3593 22.976C35.6353 22.328 35.7733 21.578 35.7733 20.726Z" fill="black"/>
</svg>
